<svg width="199" height="70" viewBox="0 0 199 70" fill="none" xmlns="http://www.w3.org/2000/svg">
<path d="M81.9474 61.1971C78.4349 61.1971 75.4023 60.0486 72.8496 57.7514L75.6372 54.3979C77.7406 56.1413 79.8746 57.013 82.0393 57.013C82.9992 57.013 83.7548 56.8284 84.3061 56.4592C84.8575 56.0901 85.1332 55.5773 85.1332 54.921C85.1332 54.3056 84.8473 53.8134 84.2755 53.4442C83.7037 53.0545 82.5499 52.634 80.814 52.1828C79.5887 51.8752 78.5983 51.5778 77.8427 51.2906C77.0871 50.983 76.3621 50.583 75.6678 50.0908C74.9939 49.5985 74.4936 48.9832 74.1668 48.2448C73.8605 47.4859 73.7073 46.5835 73.7073 45.5374C73.7073 43.589 74.4017 42.0199 75.7903 40.8303C77.1994 39.6407 79.0067 39.0459 81.2123 39.0459C84.2551 39.0459 86.9099 39.9586 89.1767 41.784L86.7261 45.3529C84.7044 43.9376 82.846 43.23 81.151 43.23C80.2729 43.23 79.5887 43.4146 79.0986 43.7838C78.6289 44.1325 78.3941 44.594 78.3941 45.1683C78.3941 45.8656 78.6902 46.3886 79.2824 46.7373C79.8746 47.086 81.1204 47.5064 83.0196 47.9987C85.3476 48.614 87.0631 49.4037 88.1658 50.3676C89.2686 51.3316 89.82 52.7161 89.82 54.521C89.82 56.6131 89.095 58.2539 87.6451 59.4435C86.2156 60.6126 84.3164 61.1971 81.9474 61.1971Z" fill="#7B6BFF"/>
<path d="M96.9772 60.8895V39.3536H113.151V43.5684H101.664V47.9372H111.773V52.1521H101.664V56.6746H113.304V60.8895H96.9772Z" fill="#7B6BFF"/>
<path d="M120.562 60.8895V39.3536H124.912L134.959 52.6135V39.3536H139.615V60.8895H135.602L125.218 47.1988V60.8895H120.562Z" fill="#7B6BFF"/>
<path d="M155.453 61.1971C151.941 61.1971 148.908 60.0486 146.355 57.7514L149.143 54.3979C151.246 56.1413 153.381 57.013 155.545 57.013C156.505 57.013 157.261 56.8284 157.812 56.4592C158.363 56.0901 158.639 55.5773 158.639 54.921C158.639 54.3056 158.353 53.8134 157.781 53.4442C157.21 53.0545 156.056 52.634 154.32 52.1828C153.095 51.8752 152.104 51.5778 151.349 51.2906C150.593 50.983 149.868 50.583 149.174 50.0908C148.5 49.5985 147.999 48.9832 147.673 48.2448C147.366 47.4859 147.213 46.5835 147.213 45.5374C147.213 43.589 147.908 42.0199 149.296 40.8303C150.705 39.6407 152.513 39.0459 154.718 39.0459C157.761 39.0459 160.416 39.9586 162.683 41.784L160.232 45.3529C158.21 43.9376 156.352 43.23 154.657 43.23C153.779 43.23 153.095 43.4146 152.605 43.7838C152.135 44.1325 151.9 44.594 151.9 45.1683C151.9 45.8656 152.196 46.3886 152.788 46.7373C153.381 47.086 154.626 47.5064 156.525 47.9987C158.854 48.614 160.569 49.4037 161.672 50.3676C162.774 51.3316 163.326 52.7161 163.326 54.521C163.326 56.6131 162.601 58.2539 161.151 59.4435C159.721 60.6126 157.822 61.1971 155.453 61.1971Z" fill="#7B6BFF"/>
<path d="M170.483 60.8895V39.3536H186.657V43.5684H175.17V47.9372H185.279V52.1521H175.17V56.6746H186.81V60.8895H170.483Z" fill="#7B6BFF"/>
<path d="M194.282 60.8895V39.3536H198.999V60.8895H194.282Z" fill="#7B6BFF"/>
<path d="M72.8701 31.0046V8.82744H78.1293L83.9587 18.2052L89.7882 8.82744H95.0473V31.0046H90.2V16.5261L83.9587 25.9989H83.832L77.6541 16.6211V31.0046H72.8701Z" fill="white"/>
<path d="M103.543 31.0046V8.82744H120.271V13.1678H108.391V17.6666H118.846V22.007H108.391V26.6642H120.43V31.0046H103.543Z" fill="white"/>
<path d="M127.936 31.0046V8.82744H138.074C140.883 8.82744 143.037 9.57724 144.537 11.0768C145.804 12.3441 146.438 14.0549 146.438 16.2093C146.438 19.6098 144.854 21.9014 141.686 23.0842L147.103 31.0046H141.4L136.585 23.9079H132.815V31.0046H127.936ZM132.815 19.5992H137.757C138.94 19.5992 139.859 19.3141 140.513 18.7438C141.168 18.1524 141.496 17.3709 141.496 16.3994C141.496 15.3644 141.158 14.5829 140.482 14.0549C139.806 13.5058 138.866 13.2312 137.662 13.2312H132.815V19.5992Z" fill="white"/>
<path d="M164.676 31.3848C161.233 31.3848 158.424 30.3076 156.248 28.1532C154.094 25.9989 153.017 23.2532 153.017 19.916C153.017 16.7267 154.126 14.0232 156.343 11.8055C158.561 9.56668 161.328 8.44727 164.644 8.44727C166.566 8.44727 168.192 8.70072 169.523 9.20762C170.854 9.69341 172.131 10.4538 173.356 11.4887L170.283 15.1955C169.354 14.414 168.456 13.8437 167.59 13.4846C166.724 13.1256 165.689 12.9461 164.486 12.9461C162.711 12.9461 161.201 13.6325 159.955 15.0054C158.73 16.3571 158.118 17.994 158.118 19.916C158.118 21.9436 158.741 23.6228 159.987 24.9534C161.254 26.284 162.87 26.9493 164.834 26.9493C166.65 26.9493 168.182 26.5058 169.428 25.6187V22.4506H164.517V18.2369H174.149V27.8681C171.382 30.2126 168.224 31.3848 164.676 31.3848Z" fill="white"/>
<path d="M182.011 31.0046V8.82744H198.739V13.1678H186.859V17.6666H197.314V22.007H186.859V26.6642H198.898V31.0046H182.011Z" fill="white"/>
<g clip-path="url(#clip0_32_3445)">
<path d="M12.945 59.4812C12.3337 59.0087 11.7028 58.4807 11.1233 57.9671C11.0156 57.8718 10.6851 57.9307 10.7938 57.6009C10.885 57.5859 11.0283 57.6294 11.1056 57.5984C12.3944 57.0816 13.7684 56.7299 15.1057 56.3061L19.0465 55.4809L10.995 46.4505L14.5725 47.9232L16.4131 34.1041C16.7841 34.2548 16.5735 35.1353 16.609 35.5282C16.8674 38.3645 17.2459 41.1527 17.5596 43.9542C17.6319 44.6015 17.6262 45.3665 17.7053 46.0275C17.8595 46.2483 19.3621 44.4526 19.5767 44.4633L27.4385 36.4608L27.4358 36.263C25.0592 33.0545 23.0923 29.4184 21.4877 25.8328C21.1699 25.1224 20.908 24.3663 20.6317 23.635C20.3213 23.4896 20.1069 23.8752 19.9284 23.9625C15.9201 25.9273 11.8649 28.3908 9.95143 32.5968C8.77833 35.1752 7.70819 38.029 6.62139 40.7297C5.77707 42.8277 4.36149 45.7875 3.78601 47.8599C3.44479 49.0886 4.48808 51.1993 5.09042 52.3495C5.31002 52.7686 5.71116 53.2293 5.90962 53.5702C5.96085 53.6585 6.29311 54.2901 6.27197 54.3263C4.52513 54.5937 2.84494 55.4136 1.68204 56.7566C-0.605224 59.3986 -0.510968 63.4046 1.66761 66.1609C3.37591 68.3222 6.43736 69.3592 9.12452 69.5283C13.5461 69.8062 18.5148 69.5008 23.004 69.5208C24.8284 69.529 26.6514 69.5941 28.4669 69.5208C29.1194 69.4944 29.7802 69.5482 30.4333 69.5243L30.3594 69.4253C23.7964 67.8329 18.1353 63.4941 12.945 59.4817V59.4812Z" fill="#7B6BFF"/>
<path d="M60.0152 59.1825C59.1935 56.5769 56.8453 54.5971 54.1002 54.3574C54.6548 53.1945 55.4561 52.167 55.9619 50.961C56.128 50.5649 56.6307 49.3372 56.6836 48.9835C56.8212 48.0655 55.5125 45.4754 55.1489 44.5407C53.6214 40.6143 52.0556 36.2843 50.268 32.4976C48.6908 29.1562 46.8738 27.9329 43.8636 26.012L43.8551 25.8781C43.5127 25.8643 43.1327 25.4625 42.8464 25.2899C42.4923 25.0764 40.0861 23.6778 39.9143 23.6448C39.8345 23.6296 39.7633 23.6142 39.6815 23.6266C38.6454 26.6438 37.0903 29.4485 35.5203 32.224C34.8173 33.4672 34.0463 34.902 33.253 36.1347C32.8289 36.7937 32.2947 37.4173 31.8409 38.0593L31.8252 38.2943C31.8816 38.3028 31.9998 38.2724 32.0356 38.2971C32.7954 38.8189 33.6536 39.1614 34.4387 39.6373C35.9075 40.5275 37.3686 41.6363 38.7546 42.6645C40.018 43.6018 41.3749 44.5016 42.4231 45.6669L42.6649 45.6777C42.9148 42.7727 43.2033 39.775 43.5062 36.8196C43.5343 36.5463 43.685 35.9506 43.7124 35.6777C43.7566 35.2355 43.5365 34.3215 43.9568 34.1038L45.7977 47.9221L49.4257 46.4741L41.3227 55.5275C44.1347 56.0239 46.878 56.6968 49.5761 57.6005L49.5766 57.7263C46.1344 60.3728 42.7653 63.0335 39.101 65.3496C39.0759 65.3653 39.0938 65.4586 39.0747 65.4706C38.4278 65.8779 37.6967 66.2196 37.0162 66.5751L36.9463 66.7794C37.1824 66.8205 37.5385 66.9358 37.7511 67.0335C39.6994 67.9288 41.5756 68.8155 43.6713 69.2867C46.2652 69.8696 51.4891 69.6456 54.086 68.927C58.4638 67.7155 61.1005 63.9373 60.0149 59.1827L60.0152 59.1825Z" fill="#7B6BFF"/>
<path d="M39.7813 16.2443C40.1145 16.5902 41.1561 14.6102 41.2309 14.3792C41.4647 13.6576 42.0551 10.8212 41.1081 10.5242C39.9514 10.1612 39.8128 12.9946 39.7795 13.6733C39.7375 14.5259 39.8143 15.3912 39.7813 16.2445V16.2443Z" fill="white"/>
<path d="M20.4658 16.2872C20.5996 16.2241 20.5613 13.6392 20.5426 13.3217C20.5088 12.7407 20.3775 11.3658 20.0748 10.8744C20.0564 10.8448 19.7028 10.5317 19.6772 10.525C19.517 10.4833 19.3479 10.508 19.1855 10.5105C18.2817 11.4342 18.8488 13.8021 19.3501 14.9058C19.5618 15.3718 20.0199 16.0251 20.466 16.2872H20.4658Z" fill="white"/>
<path d="M23.0255 21.7324H23.1742C23.4709 20.6234 24.1682 19.4707 25.014 18.6631C25.6228 18.0819 27.7666 16.7282 28.5682 16.7379C28.6587 16.7389 29.3232 17.6469 30.0621 17.689C30.6798 17.7244 31.5617 17.3308 31.7261 16.7426C33.6092 17.136 35.887 18.6019 36.6938 20.4253C36.8915 20.8721 37.0114 21.35 37.0967 21.8312C37.1504 21.895 37.2884 21.6887 37.3021 21.6616C38.1012 20.0704 38.7697 16.244 38.989 14.4757C39.7351 8.45632 39.4407 1.35932 32.0591 0.147549C27.7129 -0.565843 22.881 1.30843 21.4863 5.75391C20.4554 9.03975 21.4057 16.2413 22.3341 19.6466C22.5268 20.3537 22.8223 21.0307 23.0255 21.7319V21.7324ZM32.3742 13.3256L35.9522 13.0018C35.1668 14.3421 33.3354 14.5965 32.3742 13.3256ZM32.7415 10.4274C33.4707 9.97016 34.5107 9.35355 35.3906 9.47677C36.077 9.5728 37.171 10.7806 37.6428 11.3046C37.4379 11.2894 37.2228 11.3266 37.0188 11.3089C36.6035 11.273 35.9034 10.9941 35.4262 10.9604C34.1382 10.8699 32.9146 11.4199 31.6274 11.3049C31.9034 10.9916 32.3899 10.6479 32.7418 10.4271L32.7415 10.4274ZM25.3276 13.9332C25.1991 13.8796 24.3746 13.1635 24.3692 13.1001C24.3572 12.9639 24.3769 13.0041 24.4903 13.0026C24.7315 12.9996 25.1971 13.135 25.4965 13.1684C25.5065 13.1694 25.5027 13.247 25.5833 13.2548C26.3177 13.3261 27.1593 13.261 27.8982 13.2513C27.5298 14.2011 26.1906 14.2927 25.3276 13.9332ZM25.9909 9.57854C26.4517 9.69652 28.0991 10.692 28.4734 11.0288C28.5592 11.1058 28.6405 11.2004 28.6935 11.3049C28.3167 11.2775 27.8924 11.3428 27.5224 11.3091C27.0643 11.2675 26.3699 10.9931 25.8313 10.9597C24.7303 10.8911 23.7681 11.2937 22.6778 11.3051C23.5771 10.2465 24.4759 9.19091 25.9912 9.57854H25.9909Z" fill="white"/>
<path d="M35.9044 23.5017C35.6667 20.9996 34.037 18.8689 31.4627 18.5067C29.0023 18.1605 26.4174 18.8155 25.1779 21.0976C23.4512 24.277 25.1535 27.455 26.9732 30.142C27.3846 30.7494 29.5661 33.554 30.1618 33.6586C31.591 32.6329 32.9029 30.9517 33.8482 29.4471C34.895 27.7816 36.0957 25.5182 35.9039 23.5017H35.9044ZM29.537 22.7327C28.636 22.5855 27.6489 21.3912 27.5326 20.506C29.0797 21.6561 31.313 21.7102 32.8519 20.506C32.6181 22.155 31.1277 22.9924 29.5368 22.7327H29.537Z" fill="white"/>
<path d="M32.285 63.4411C29.8097 63.294 27.1912 63.932 24.9823 62.5713C24.4018 62.2137 23.7495 61.4808 23.3235 60.944C24.1768 60.9545 24.9005 61.6195 25.6995 61.8866C26.079 62.0136 27.4183 62.3673 27.7582 62.3304C27.8057 62.3252 28.4675 62.0206 28.4859 61.9844L28.4966 61.824L24.6779 58.6514C23.1663 58.6178 21.5311 58.7747 20.0805 58.2952C19.7878 58.1985 19.0733 57.643 18.9812 57.6198C18.5207 57.504 16.7049 58.6175 16.1133 58.6484L16.1255 58.8869C18.4978 60.5155 20.7331 62.5741 23.2872 63.9223C26.0221 65.366 29.9037 65.8016 32.946 65.2371C33.0087 65.2254 33.0731 65.1154 33.1716 65.1051C33.0843 64.4546 32.7498 63.8866 32.285 63.4411Z" fill="white"/>
<path d="M44.2066 58.7724L44.169 58.6499L41.7042 57.6185C41.167 57.517 41.3312 57.7784 41.0566 57.9338C40.2929 58.3656 39.3436 58.5881 38.4662 58.6512C37.5701 58.7155 36.5967 58.5965 35.6922 58.6494C34.7422 59.7395 33.0103 60.6581 32.0804 61.6783C32.0036 61.7627 31.8834 61.8098 31.929 61.9607C32.0836 62.296 34.7131 61.5501 35.12 61.4302C35.7701 61.2383 36.4309 60.7679 37.1459 60.8442C36.2374 62.0864 34.97 62.7055 33.5164 63.0894L34.9964 64.6309C35.3363 64.6941 37.1986 63.7886 37.634 63.5559C39.9775 62.3044 42.0874 60.3651 44.2066 58.7726V58.7724Z" fill="white"/>
<path d="M31.8317 44.0707C31.8317 43.165 31.0995 42.4307 30.1965 42.4307C29.2935 42.4307 28.5613 43.165 28.5613 44.0707C28.5613 44.7691 28.9968 45.365 29.6098 45.6015V53.6317L24.9037 48.9116C25.0221 48.7147 25.0903 48.484 25.0903 48.2373C25.0903 47.515 24.5066 46.9295 23.7863 46.9295C23.0661 46.9295 22.4824 47.515 22.4824 48.2373C22.4824 48.9597 23.0661 49.5451 23.7863 49.5451C23.8343 49.5451 23.8816 49.5424 23.9283 49.5374L29.6096 55.2355V59.8664C29.6096 60.1914 29.8722 60.4548 30.1962 60.4548C30.5203 60.4548 30.7829 60.1914 30.7829 59.8664V55.1577L36.1766 49.7479C36.2888 49.7801 36.4072 49.7978 36.5295 49.7978C37.2368 49.7978 37.8101 49.2229 37.8101 48.5135C37.8101 47.8041 37.2368 47.2291 36.5295 47.2291C35.8222 47.2291 35.249 47.8041 35.249 48.5135C35.249 48.6362 35.2667 48.7549 35.2987 48.8674L30.7829 53.3967V45.6015C31.3962 45.365 31.8314 44.7689 31.8314 44.0707H31.8317Z" fill="white"/>
</g>
<defs>
<clipPath id="clip0_32_3445">
<rect width="60.2591" height="69.645" fill="white"/>
</clipPath>
</defs>
</svg>
